<?xml version="1.0" standalone="no"?>
<!DOCTYPE svg PUBLIC "-//W3C//DTD SVG 20010904//EN"
 "http://www.w3.org/TR/2001/REC-SVG-20010904/DTD/svg10.dtd">
<svg version="1.0" xmlns="http://www.w3.org/2000/svg"
 width="596.000000pt" height="842.000000pt" viewBox="0 0 596.000000 842.000000"
 preserveAspectRatio="xMidYMid meet">

<g transform="translate(0.000000,842.000000) scale(0.100000,-0.100000)"
fill="#000000" stroke="none">
<path d="M842 4990 c0 -36 3 -40 20 -34 14 4 18 2 14 -5 -4 -6 -13 -11 -21
-11 -21 0 -21 -844 0 -943 46 -218 226 -406 441 -461 80 -21 228 -21 308 0
144 37 302 157 373 284 59 104 78 182 77 310 -1 99 -5 125 -29 190 -79 214
-240 354 -467 404 l-28 6 0 150 0 150 -192 0 c-149 -1 -199 -4 -218 -15 -32
-18 -51 -19 -27 -1 16 12 14 14 -15 12 -18 -1 -39 -5 -45 -9 -7 -5 -13 -4 -13
2 0 5 -38 10 -89 10 l-90 1 1 -40z m140 1 c-3 -9 -7 -11 -9 -4 -3 7 -12 9 -21
6 -12 -3 -14 -2 -4 4 20 15 41 12 34 -6z m38 -15 c0 -11 -19 -15 -25 -6 -3 5
1 10 9 10 9 0 16 -2 16 -4z m-69 -31 c10 6 11 5 3 -4 -14 -15 -44 -4 -44 17 0
13 2 13 13 -3 9 -11 19 -15 28 -10z m-51 -29 c0 -2 -7 -7 -16 -10 -8 -3 -12
-2 -9 4 6 10 25 14 25 6z m350 -437 c0 -281 3 -403 12 -433 28 -91 151 -167
245 -150 179 32 256 228 148 371 -30 39 -114 83 -158 83 -27 0 -28 1 -25 48
l3 47 35 -3 c106 -8 208 -79 257 -180 38 -76 40 -191 5 -267 -30 -65 -102
-138 -166 -167 -77 -34 -192 -32 -268 5 -68 33 -121 90 -156 166 -30 63 -29
48 -24 579 l2 292 45 0 45 0 0 -391z"/>
<path d="M2383 4920 c-76 -39 -108 -119 -78 -195 34 -91 140 -132 222 -86 55
32 76 66 81 131 3 45 0 61 -20 89 -52 77 -129 99 -205 61z"/>
<path d="M4215 4594 c-39 -25 -44 -25 -140 -18 -134 11 -191 8 -245 -11 -149
-52 -198 -162 -121 -272 32 -45 38 -63 22 -63 -5 0 -23 -14 -40 -31 -42 -41
-42 -86 -1 -132 l29 -34 -29 -22 c-25 -18 -30 -29 -30 -63 0 -34 6 -46 35 -74
48 -45 118 -65 235 -65 156 0 250 31 315 102 41 46 55 77 55 124 0 47 -18 82
-54 104 -49 30 -86 33 -216 20 -137 -14 -174 -6 -168 34 3 21 9 22 101 28 82
6 109 12 162 38 75 37 103 76 114 155 4 30 17 65 28 80 28 35 37 79 23 105
-14 27 -26 26 -75 -5z m-221 -107 c52 -52 39 -178 -20 -193 -22 -6 -32 -2 -50
19 -42 49 -43 153 -1 182 29 21 44 19 71 -8z m68 -515 c16 -16 1 -42 -33 -59
-33 -17 -112 -16 -156 2 -40 17 -53 30 -53 56 0 15 14 17 115 15 77 -1 118 -5
127 -14z"/>
<path d="M2460 4575 c-117 -24 -170 -48 -191 -87 -8 -15 -3 -25 28 -53 l38
-35 0 -114 0 -115 -32 -33 c-40 -41 -42 -72 -6 -95 23 -15 50 -18 163 -18 113
0 140 3 163 18 36 24 36 64 0 93 l-28 22 -3 203 c-2 124 -7 208 -14 216 -13
16 -33 15 -118 -2z"/>
<path d="M2960 4570 c-126 -31 -190 -64 -190 -99 0 -9 14 -27 31 -41 34 -28
34 -30 31 -183 -2 -90 -4 -100 -27 -123 -31 -30 -32 -55 -4 -80 17 -15 40 -20
121 -22 123 -5 163 2 194 33 l25 25 -21 39 c-16 33 -20 59 -20 148 0 131 11
156 68 151 31 -2 40 -9 55 -38 26 -50 17 -221 -14 -263 -11 -15 -19 -38 -17
-50 5 -39 42 -48 173 -44 166 4 199 26 149 98 -23 34 -26 49 -34 183 -6 123
-11 153 -31 193 -54 108 -207 126 -293 34 -28 -29 -55 -40 -57 -23 -1 4 -3 20
-5 36 -6 51 -21 54 -134 26z"/>
<path d="M4659 4576 c-173 -46 -272 -209 -225 -370 50 -171 265 -242 460 -153
153 70 219 210 166 349 -56 149 -224 222 -401 174z m107 -133 c25 -26 41 -69
54 -153 8 -54 9 -83 1 -103 -23 -60 -78 -42 -111 36 -27 62 -39 199 -20 222
17 20 54 19 76 -2z"/>
<path d="M2160 3620 c11 -21 20 -46 20 -55 0 -8 5 -15 10 -15 6 0 10 10 10 23
0 12 9 37 20 55 11 17 15 32 10 32 -5 0 -14 -9 -20 -20 -6 -11 -15 -20 -20
-20 -5 0 -12 9 -15 20 -3 11 -13 20 -21 20 -12 0 -11 -8 6 -40z"/>
<path d="M2312 3648 c-17 -17 -15 -74 4 -92 21 -22 50 -20 74 4 25 25 26 62 2
83 -22 20 -63 22 -80 5z m66 -52 c-2 -21 -9 -32 -22 -34 -35 -7 -51 59 -19 77
26 14 45 -6 41 -43z"/>
<path d="M2470 3616 c0 -63 43 -99 78 -64 14 14 16 108 2 108 -5 0 -10 -22
-10 -50 0 -43 -3 -50 -20 -50 -17 0 -20 7 -20 50 0 38 -4 50 -15 50 -11 0 -15
-12 -15 -44z"/>
<path d="M2637 3653 c-4 -3 -7 -28 -7 -55 0 -36 4 -48 15 -48 9 0 15 9 15 23
l1 22 18 -22 c26 -31 46 -30 26 1 -11 16 -13 26 -6 31 17 10 13 42 -5 49 -21
8 -49 8 -57 -1z m51 -25 c-6 -18 -28 -21 -28 -4 0 9 7 16 16 16 9 0 14 -5 12
-12z"/>
<path d="M2876 3633 c17 -67 21 -77 32 -81 6 -2 15 12 20 30 l10 33 7 -32 c11
-50 41 -44 55 10 6 23 13 48 15 55 2 6 0 12 -5 12 -5 0 -12 -15 -16 -34 -7
-42 -29 -39 -38 5 -8 39 -24 37 -32 -6 -7 -40 -19 -38 -27 5 -4 16 -11 30 -17
30 -6 0 -8 -11 -4 -27z"/>
<path d="M3080 3605 c0 -30 5 -55 10 -55 6 0 10 25 10 55 0 30 -4 55 -10 55
-5 0 -10 -25 -10 -55z"/>
<path d="M3170 3605 c0 -30 5 -55 10 -55 6 0 10 17 10 37 l0 38 25 -38 c14
-20 30 -37 35 -37 6 0 9 26 9 58 -2 53 -2 54 -8 17 l-6 -40 -29 38 c-15 20
-32 37 -37 37 -5 0 -9 -25 -9 -55z"/>
<path d="M3340 3605 l0 -55 40 0 c29 0 42 5 50 19 25 48 -3 91 -58 91 l-32 0
0 -55z m65 -5 c0 -29 -4 -36 -22 -38 -21 -3 -23 1 -23 38 0 37 2 41 23 38 18
-2 22 -9 22 -38z"/>
<path d="M3515 3644 c-24 -25 -16 -75 16 -93 24 -13 29 -13 53 2 47 31 27 107
-29 107 -13 0 -31 -7 -40 -16z m71 -31 c9 -33 -19 -62 -44 -47 -23 15 -27 48
-7 67 20 21 43 12 51 -20z"/>
<path d="M3670 3649 c0 -30 24 -99 35 -99 7 0 16 15 20 33 l7 32 9 -32 c14
-49 34 -41 47 18 12 50 9 82 -4 43 -18 -58 -21 -60 -29 -21 -9 45 -25 44 -39
-4 l-10 -34 -10 38 c-9 34 -26 51 -26 26z"/>
<path d="M3950 3650 c0 -5 9 -10 20 -10 17 0 20 -7 20 -45 0 -25 5 -45 10 -45
6 0 10 20 10 45 0 38 3 45 20 45 11 0 20 5 20 10 0 6 -22 10 -50 10 -27 0 -50
-4 -50 -10z"/>
<path d="M4122 3648 c-17 -17 -15 -74 4 -92 21 -22 50 -20 74 4 25 25 26 62 2
83 -22 20 -63 22 -80 5z m66 -52 c-2 -21 -9 -32 -22 -34 -35 -7 -51 59 -19 77
26 14 45 -6 41 -43z"/>
<path d="M4385 3636 c-32 -49 14 -108 69 -89 18 6 16 8 -14 13 -30 4 -35 9
-38 35 -4 33 18 56 48 48 11 -3 20 0 20 6 0 6 -16 11 -35 11 -25 0 -39 -6 -50
-24z"/>
<path d="M4537 3653 c-4 -3 -7 -28 -7 -55 0 -36 4 -48 15 -48 9 0 15 10 15 26
0 21 4 25 23 22 14 -2 23 -11 25 -25 7 -45 22 -22 22 32 0 54 -15 77 -22 33
-2 -15 -11 -24 -25 -26 -19 -3 -23 1 -23 22 0 25 -10 33 -23 19z"/>
<path d="M4700 3605 c0 -30 5 -55 10 -55 6 0 10 25 10 55 0 30 -4 55 -10 55
-5 0 -10 -25 -10 -55z"/>
<path d="M4800 3605 c0 -30 5 -55 10 -55 6 0 10 15 10 33 l0 32 21 -32 c32
-51 49 -43 49 22 0 62 -17 75 -22 18 l-3 -38 -23 38 c-13 20 -28 37 -33 37 -5
0 -9 -25 -9 -55z"/>
<path d="M4973 3605 c-12 -30 -17 -55 -13 -55 4 0 10 7 14 15 7 20 43 19 54
-1 5 -9 14 -15 19 -13 14 5 -26 109 -42 109 -7 0 -21 -25 -32 -55z m35 -14
c-15 -5 -21 7 -13 26 7 17 8 17 15 -2 4 -11 3 -22 -2 -24z"/>
</g>
</svg>
